<svg width="38" height="38" viewBox="0 0 38 38" fill="none" xmlns="http://www.w3.org/2000/svg">
<g clip-path="url(#clip0_932_1062)">
<mask id="path-1-inside-1_932_1062" fill="white">
<path d="M32.5525 37.8788H5.32715V10.0615H32.5525V37.8788ZM6.51086 36.695H31.3688V11.2452H6.51086V36.695Z"/>
</mask>
<path d="M32.5525 37.8788H5.32715V10.0615H32.5525V37.8788ZM6.51086 36.695H31.3688V11.2452H6.51086V36.695Z" fill="white"/>
<path d="M32.5525 37.8788V57.8788H52.5525V37.8788H32.5525ZM5.32715 37.8788H-14.6729V57.8788H5.32715V37.8788ZM5.32715 10.0615V-9.93848H-14.6729V10.0615H5.32715ZM32.5525 10.0615H52.5525V-9.93848H32.5525V10.0615ZM6.51086 36.695H-13.4891V56.695H6.51086V36.695ZM31.3688 36.695V56.695H51.3688V36.695H31.3688ZM31.3688 11.2452H51.3688V-8.75476H31.3688V11.2452ZM6.51086 11.2452V-8.75476H-13.4891V11.2452H6.51086ZM32.5525 17.8788H5.32715V57.8788H32.5525V17.8788ZM25.3271 37.8788V10.0615H-14.6729V37.8788H25.3271ZM5.32715 30.0615H32.5525V-9.93848H5.32715V30.0615ZM12.5525 10.0615V37.8788H52.5525V10.0615H12.5525ZM6.51086 56.695H31.3688V16.695H6.51086V56.695ZM51.3688 36.695V11.2452H11.3688V36.695H51.3688ZM31.3688 -8.75476H6.51086V31.2452H31.3688V-8.75476ZM-13.4891 11.2452V36.695H26.5109V11.2452H-13.4891Z" fill="white" mask="url(#path-1-inside-1_932_1062)"/>
<path d="M25.4495 14.2045H24.2658V6.51042C24.2658 3.57363 21.8759 1.18371 18.9391 1.18371C16.0023 1.18371 13.6124 3.57363 13.6124 6.51042V14.2045H12.4287V6.51042C12.4287 2.92081 15.3495 0 18.9391 0C22.5287 0 25.4495 2.92081 25.4495 6.51042V14.2045Z" fill="white"/>
</g>
<defs>
<clipPath id="clip0_932_1062">
<rect width="37.8788" height="37.8788" fill="white"/>
</clipPath>
</defs>
</svg>
