<svg width="61" height="61" viewBox="0 0 61 61" fill="none" xmlns="http://www.w3.org/2000/svg">
<circle cx="30.8037" cy="30.6855" r="30" fill="white"/>
<path d="M38.2131 20.275C37.8571 20.275 37.5091 20.3805 37.2131 20.5783C36.9171 20.7761 36.6864 21.0572 36.5501 21.3861C36.4139 21.715 36.3783 22.077 36.4477 22.4261C36.5172 22.7753 36.6886 23.096 36.9403 23.3478C37.1921 23.5995 37.5128 23.7709 37.862 23.8404C38.2111 23.9098 38.573 23.8742 38.902 23.7379C39.2309 23.6017 39.512 23.371 39.7098 23.075C39.9076 22.779 40.0131 22.431 40.0131 22.075C40.0131 21.5976 39.8235 21.1397 39.4859 20.8022C39.1484 20.4646 38.6905 20.275 38.2131 20.275ZM45.1131 23.905C45.084 22.6604 44.8509 21.4291 44.4231 20.26C44.0417 19.2597 43.4481 18.3539 42.6831 17.605C41.9404 16.8361 41.0325 16.2462 40.0281 15.88C38.8621 15.4392 37.6294 15.2008 36.3831 15.175C34.7931 15.085 34.2831 15.085 30.2031 15.085C26.1231 15.085 25.6131 15.085 24.0231 15.175C22.7769 15.2008 21.5441 15.4392 20.3781 15.88C19.3756 16.2499 18.4685 16.8393 17.7231 17.605C16.9543 18.3477 16.3644 19.2556 15.9981 20.26C15.5574 21.426 15.3189 22.6587 15.2931 23.905C15.2031 25.495 15.2031 26.005 15.2031 30.085C15.2031 34.165 15.2031 34.675 15.2931 36.265C15.3189 37.5112 15.5574 38.7439 15.9981 39.91C16.3644 40.9143 16.9543 41.8222 17.7231 42.565C18.4685 43.3306 19.3756 43.92 20.3781 44.29C21.5441 44.7307 22.7769 44.9691 24.0231 44.995C25.6131 45.085 26.1231 45.085 30.2031 45.085C34.2831 45.085 34.7931 45.085 36.3831 44.995C37.6294 44.9691 38.8621 44.7307 40.0281 44.29C41.0325 43.9237 41.9404 43.3338 42.6831 42.565C43.4515 41.8188 44.0456 40.9123 44.4231 39.91C44.8509 38.7409 45.084 37.5095 45.1131 36.265C45.1131 34.675 45.2031 34.165 45.2031 30.085C45.2031 26.005 45.2031 25.495 45.1131 23.905ZM42.4131 36.085C42.4022 37.0371 42.2298 37.9805 41.9031 38.875C41.6636 39.5278 41.2789 40.1176 40.7781 40.6C40.2916 41.0957 39.703 41.4796 39.0531 41.725C38.1587 42.0516 37.2153 42.224 36.2631 42.235C34.7631 42.31 34.2081 42.325 30.2631 42.325C26.3181 42.325 25.7631 42.325 24.2631 42.235C23.2745 42.2535 22.29 42.1012 21.3531 41.785C20.7318 41.5271 20.1702 41.1441 19.7031 40.66C19.2053 40.1781 18.8254 39.5877 18.5931 38.935C18.2269 38.0277 18.0238 37.0629 17.9931 36.085C17.9931 34.585 17.9031 34.03 17.9031 30.085C17.9031 26.14 17.9031 25.585 17.9931 24.085C17.9998 23.1115 18.1776 22.1469 18.5181 21.235C18.7822 20.6018 19.1875 20.0374 19.7031 19.585C20.1588 19.0692 20.7221 18.6596 21.3531 18.385C22.2675 18.055 23.2311 17.8826 24.2031 17.875C25.7031 17.875 26.2581 17.785 30.2031 17.785C34.1481 17.785 34.7031 17.785 36.2031 17.875C37.1553 17.8859 38.0987 18.0583 38.9931 18.385C39.6748 18.6379 40.2866 19.0492 40.7781 19.585C41.2697 20.0457 41.6538 20.6091 41.9031 21.235C42.2365 22.1484 42.4091 23.1126 42.4131 24.085C42.4881 25.585 42.5031 26.14 42.5031 30.085C42.5031 34.03 42.4881 34.585 42.4131 36.085ZM30.2031 22.39C28.6818 22.3929 27.1956 22.8467 25.9321 23.6941C24.6686 24.5414 23.6847 25.7443 23.1046 27.1506C22.5245 28.5569 22.3742 30.1037 22.6728 31.5954C22.9714 33.087 23.7055 34.4568 24.7822 35.5314C25.859 36.6061 27.2301 37.3375 28.7224 37.6332C30.2147 37.9289 31.7611 37.7756 33.1663 37.1928C34.5715 36.6099 35.7724 35.6236 36.6173 34.3585C37.4622 33.0934 37.9131 31.6062 37.9131 30.085C37.9151 29.0726 37.7169 28.0699 37.33 27.1344C36.943 26.1989 36.375 25.3492 35.6584 24.634C34.9419 23.9189 34.091 23.3525 33.1548 22.9674C32.2186 22.5822 31.2155 22.386 30.2031 22.39ZM30.2031 35.08C29.2152 35.08 28.2495 34.787 27.4281 34.2382C26.6066 33.6893 25.9664 32.9092 25.5883 31.9965C25.2103 31.0837 25.1114 30.0794 25.3041 29.1105C25.4968 28.1416 25.9726 27.2515 26.6711 26.553C27.3697 25.8544 28.2597 25.3787 29.2286 25.1859C30.1976 24.9932 31.2019 25.0921 32.1146 25.4702C33.0273 25.8482 33.8075 26.4885 34.3563 27.3099C34.9052 28.1313 35.1981 29.097 35.1981 30.085C35.1981 30.7409 35.0689 31.3904 34.8179 31.9965C34.5669 32.6025 34.199 33.1531 33.7351 33.617C33.2713 34.0808 32.7206 34.4487 32.1146 34.6997C31.5086 34.9508 30.8591 35.08 30.2031 35.08Z" fill="#40180C"/>
</svg>
