<svg width="61" height="61" viewBox="0 0 61 61" fill="none" xmlns="http://www.w3.org/2000/svg">
<circle cx="30.8037" cy="30.6855" r="30" fill="white"/>
<path d="M45.1073 18.6855H18.0001C17.0198 18.6855 16.0796 19.0735 15.3864 19.7639C14.6932 20.4544 14.3037 21.3909 14.3037 22.3674V42.0037C14.3037 42.9802 14.6932 43.9167 15.3864 44.6072C16.0796 45.2976 17.0198 45.6855 18.0001 45.6855H45.1073C46.0876 45.6855 47.0278 45.2976 47.7211 44.6072C48.4143 43.9167 48.8037 42.9802 48.8037 42.0037V22.3674C48.8037 21.3909 48.4143 20.4544 47.7211 19.7639C47.0278 19.0735 46.0876 18.6855 45.1073 18.6855ZM39.4025 21.1401L31.5537 28.0865L23.705 21.1401H39.4025ZM41.4109 43.231H21.6966V29.2278L30.7405 37.0946C30.9653 37.2914 31.2544 37.3999 31.5537 37.3999C31.853 37.3999 32.1421 37.2914 32.3669 37.0946L41.4109 29.2278V43.231ZM46.3394 42.0037C46.3394 42.3292 46.2096 42.6414 45.9785 42.8715C45.7475 43.1017 45.4341 43.231 45.1073 43.231H43.8751V26.5155C43.8748 26.2797 43.8063 26.0489 43.6778 25.8508C43.5492 25.6528 43.3661 25.4958 43.1503 25.3987C42.9345 25.3016 42.6952 25.2685 42.461 25.3033C42.2268 25.3381 42.0077 25.4394 41.8298 25.5951L31.5537 34.5419L21.2776 25.5951C21.0997 25.4394 20.8806 25.3381 20.6464 25.3033C20.4122 25.2685 20.1729 25.3016 19.9571 25.3987C19.7413 25.4958 19.5582 25.6528 19.4297 25.8508C19.3011 26.0489 19.2326 26.2797 19.2323 26.5155V43.231H18.0001C17.6734 43.231 17.36 43.1017 17.1289 42.8715C16.8978 42.6414 16.768 42.3292 16.768 42.0037V22.3674C16.768 22.0419 16.8978 21.7297 17.1289 21.4996C17.36 21.2694 17.6734 21.1401 18.0001 21.1401H19.9962L30.7405 30.6515C30.9653 30.8482 31.2544 30.9567 31.5537 30.9567C31.853 30.9567 32.1421 30.8482 32.3669 30.6515L43.1112 21.1401H45.1073C45.4341 21.1401 45.7475 21.2694 45.9785 21.4996C46.2096 21.7297 46.3394 22.0419 46.3394 22.3674V42.0037Z" fill="#40180C"/>
</svg>
