<svg width="61" height="61" viewBox="0 0 61 61" fill="none" xmlns="http://www.w3.org/2000/svg">
<circle cx="30.8037" cy="30.6855" r="30" fill="white"/>
<path d="M38.4074 34.3001C38.106 34.1503 36.1468 33.2514 35.8454 33.1016C35.544 32.9518 35.2426 32.9518 34.9412 33.2514C34.6397 33.5511 34.0369 34.4499 33.7355 34.7496C33.5848 35.0492 33.2834 35.0492 32.982 34.8994C31.927 34.4499 30.8721 33.8507 29.9679 33.1016C29.2143 32.3526 28.4608 31.4537 27.858 30.5548C27.7073 30.2552 27.858 29.9556 28.0087 29.8058C28.1594 29.6559 28.3101 29.3563 28.6115 29.2065C28.7622 29.0567 28.9129 28.7571 28.9129 28.6073C29.0636 28.4574 29.0636 28.1578 28.9129 28.008C28.7622 27.8582 28.0087 26.0604 27.7073 25.3114C27.5566 24.2627 27.2551 24.2627 26.9537 24.2627H26.2002C25.8988 24.2627 25.4467 24.5623 25.296 24.7121C24.3917 25.611 23.9396 26.6597 23.9396 27.8582C24.0903 29.2065 24.5424 30.5548 25.4467 31.7533C27.1044 34.1503 29.2143 36.0979 31.7763 37.2964C32.5299 37.596 33.1327 37.8956 33.8862 38.0455C34.6397 38.3451 35.3933 38.3451 36.2975 38.1953C37.3525 38.0455 38.2567 37.2964 38.8595 36.3975C39.1609 35.7983 39.1609 35.199 39.0102 34.5998L38.4074 34.3001ZM42.1751 20.6672C36.2975 14.8245 26.803 14.8245 20.9255 20.6672C16.1029 25.4612 15.1986 32.802 18.5142 38.6447L16.4043 46.2852L24.3917 44.1878C26.6523 45.3863 29.0636 45.9855 31.4749 45.9855C39.7638 45.9855 46.3948 39.3938 46.3948 31.1541C46.5455 27.2589 44.8878 23.5136 42.1751 20.6672ZM38.106 41.641C36.1468 42.8395 33.8862 43.5885 31.4749 43.5885C29.2143 43.5885 27.1044 42.9893 25.1453 41.9406L24.6931 41.641L20.0212 42.8395L21.2269 38.3451L20.9255 37.8956C17.3085 31.9031 19.117 24.4125 24.9945 20.6672C30.8721 16.9219 38.4074 18.8694 42.0243 24.5623C45.6413 30.405 43.9835 38.0455 38.106 41.641Z" fill="#40180C"/>
</svg>
