<svg width="61" height="61" viewBox="0 0 61 61" fill="none" xmlns="http://www.w3.org/2000/svg">
<circle cx="30.8037" cy="30.6875" r="30" fill="white"/>
<path d="M45.1073 18.6875H18.0001C17.0198 18.6875 16.0796 19.0754 15.3864 19.7659C14.6932 20.4564 14.3037 21.3928 14.3037 22.3693V42.0057C14.3037 42.9822 14.6932 43.9186 15.3864 44.6091C16.0796 45.2996 17.0198 45.6875 18.0001 45.6875H45.1073C46.0876 45.6875 47.0278 45.2996 47.7211 44.6091C48.4143 43.9186 48.8037 42.9822 48.8037 42.0057V22.3693C48.8037 21.3928 48.4143 20.4564 47.7211 19.7659C47.0278 19.0754 46.0876 18.6875 45.1073 18.6875ZM39.4025 21.142L31.5537 28.0884L23.705 21.142H39.4025ZM41.4109 43.233H21.6966V29.2298L30.7405 37.0966C30.9653 37.2933 31.2544 37.4019 31.5537 37.4019C31.853 37.4019 32.1421 37.2933 32.3669 37.0966L41.4109 29.2298V43.233ZM46.3394 42.0057C46.3394 42.3312 46.2096 42.6433 45.9785 42.8735C45.7475 43.1037 45.4341 43.233 45.1073 43.233H43.8751V26.5175C43.8748 26.2816 43.8063 26.0509 43.6778 25.8528C43.5492 25.6547 43.3661 25.4977 43.1503 25.4006C42.9345 25.3035 42.6952 25.2704 42.461 25.3052C42.2268 25.3401 42.0077 25.4414 41.8298 25.597L31.5537 34.5439L21.2776 25.597C21.0997 25.4414 20.8806 25.3401 20.6464 25.3052C20.4122 25.2704 20.1729 25.3035 19.9571 25.4006C19.7413 25.4977 19.5582 25.6547 19.4297 25.8528C19.3011 26.0509 19.2326 26.2816 19.2323 26.5175V43.233H18.0001C17.6734 43.233 17.36 43.1037 17.1289 42.8735C16.8978 42.6433 16.768 42.3312 16.768 42.0057V22.3693C16.768 22.0438 16.8978 21.7317 17.1289 21.5015C17.36 21.2713 17.6734 21.142 18.0001 21.142H19.9962L30.7405 30.6534C30.9653 30.8502 31.2544 30.9587 31.5537 30.9587C31.853 30.9587 32.1421 30.8502 32.3669 30.6534L43.1112 21.142H45.1073C45.4341 21.142 45.7475 21.2713 45.9785 21.5015C46.2096 21.7317 46.3394 22.0438 46.3394 22.3693V42.0057Z" fill="black"/>
</svg>
