<svg width="61" height="61" viewBox="0 0 61 61" fill="none" xmlns="http://www.w3.org/2000/svg">
<circle cx="30.9629" cy="30.6963" r="30" fill="black"/>
<path d="M38.3723 20.2857C38.0163 20.2857 37.6683 20.3913 37.3723 20.5891C37.0763 20.7868 36.8456 21.068 36.7093 21.3969C36.5731 21.7258 36.5374 22.0877 36.6069 22.4369C36.6763 22.786 36.8478 23.1068 37.0995 23.3585C37.3512 23.6102 37.672 23.7817 38.0211 23.8511C38.3703 23.9206 38.7322 23.8849 39.0611 23.7487C39.39 23.6124 39.6712 23.3817 39.8689 23.0857C40.0667 22.7897 40.1723 22.4417 40.1723 22.0857C40.1723 21.6083 39.9827 21.1505 39.6451 20.8129C39.3075 20.4753 38.8497 20.2857 38.3723 20.2857ZM45.2723 23.9157C45.2431 22.6712 45.01 21.4398 44.5823 20.2707C44.2009 19.2704 43.6073 18.3646 42.8423 17.6157C42.0995 16.8468 41.1916 16.257 40.1873 15.8907C39.0213 15.4499 37.7886 15.2115 36.5423 15.1857C34.9523 15.0957 34.4423 15.0957 30.3623 15.0957C26.2823 15.0957 25.7723 15.0957 24.1823 15.1857C22.936 15.2115 21.7033 15.4499 20.5373 15.8907C19.5348 16.2607 18.6277 16.85 17.8823 17.6157C17.1134 18.3585 16.5236 19.2664 16.1573 20.2707C15.7165 21.4367 15.4781 22.6694 15.4523 23.9157C15.3623 25.5057 15.3623 26.0157 15.3623 30.0957C15.3623 34.1757 15.3623 34.6857 15.4523 36.2757C15.4781 37.522 15.7165 38.7547 16.1573 39.9207C16.5236 40.925 17.1134 41.8329 17.8823 42.5757C18.6277 43.3414 19.5348 43.9307 20.5373 44.3007C21.7033 44.7415 22.936 44.9799 24.1823 45.0057C25.7723 45.0957 26.2823 45.0957 30.3623 45.0957C34.4423 45.0957 34.9523 45.0957 36.5423 45.0057C37.7886 44.9799 39.0213 44.7415 40.1873 44.3007C41.1916 43.9344 42.0995 43.3446 42.8423 42.5757C43.6107 41.8296 44.2048 40.923 44.5823 39.9207C45.01 38.7516 45.2431 37.5203 45.2723 36.2757C45.2723 34.6857 45.3623 34.1757 45.3623 30.0957C45.3623 26.0157 45.3623 25.5057 45.2723 23.9157ZM42.5723 36.0957C42.5614 37.0479 42.3889 37.9913 42.0623 38.8857C41.8228 39.5385 41.4381 40.1283 40.9373 40.6107C40.4508 41.1065 39.8621 41.4904 39.2123 41.7357C38.3179 42.0623 37.3745 42.2348 36.4223 42.2457C34.9223 42.3207 34.3673 42.3357 30.4223 42.3357C26.4773 42.3357 25.9223 42.3357 24.4223 42.2457C23.4336 42.2642 22.4492 42.112 21.5123 41.7957C20.891 41.5378 20.3293 41.1549 19.8623 40.6707C19.3644 40.1888 18.9846 39.5985 18.7523 38.9457C18.3861 38.0384 18.183 37.0736 18.1523 36.0957C18.1523 34.5957 18.0623 34.0407 18.0623 30.0957C18.0623 26.1507 18.0623 25.5957 18.1523 24.0957C18.159 23.1223 18.3367 22.1576 18.6773 21.2457C18.9414 20.6126 19.3467 20.0482 19.8623 19.5957C20.318 19.08 20.8812 18.6703 21.5123 18.3957C22.4266 18.0658 23.3903 17.8933 24.3623 17.8857C25.8623 17.8857 26.4173 17.7957 30.3623 17.7957C34.3073 17.7957 34.8623 17.7957 36.3623 17.8857C37.3145 17.8966 38.2579 18.0691 39.1523 18.3957C39.834 18.6487 40.4457 19.06 40.9373 19.5957C41.4289 20.0565 41.8129 20.6198 42.0623 21.2457C42.3957 22.1591 42.5682 23.1234 42.5723 24.0957C42.6473 25.5957 42.6623 26.1507 42.6623 30.0957C42.6623 34.0407 42.6473 34.5957 42.5723 36.0957ZM30.3623 22.4007C28.841 22.4037 27.3547 22.8575 26.0913 23.7048C24.8278 24.5522 23.8439 25.755 23.2638 27.1613C22.6836 28.5677 22.5334 30.1144 22.832 31.6061C23.1306 33.0978 23.8647 34.4675 24.9414 35.5422C26.0182 36.6168 27.3893 37.3482 28.8816 37.6439C30.3739 37.9396 31.9203 37.7864 33.3255 37.2035C34.7307 36.6207 35.9316 35.6344 36.7765 34.3693C37.6214 33.1041 38.0723 31.617 38.0723 30.0957C38.0743 29.0834 37.8761 28.0806 37.4892 27.1451C37.1022 26.2097 36.5341 25.3599 35.8176 24.6448C35.1011 23.9296 34.2502 23.3632 33.314 22.9781C32.3778 22.593 31.3746 22.3967 30.3623 22.4007ZM30.3623 35.0907C29.3744 35.0907 28.4087 34.7978 27.5872 34.2489C26.7658 33.7 26.1256 32.9199 25.7475 32.0072C25.3695 31.0945 25.2705 30.0902 25.4633 29.1212C25.656 28.1523 26.1317 27.2623 26.8303 26.5637C27.5289 25.8651 28.4189 25.3894 29.3878 25.1967C30.3568 25.0039 31.3611 25.1029 32.2738 25.4809C33.1865 25.859 33.9666 26.4992 34.5155 27.3206C35.0644 28.1421 35.3573 29.1078 35.3573 30.0957C35.3573 30.7517 35.2281 31.4012 34.9771 32.0072C34.7261 32.6132 34.3581 33.1639 33.8943 33.6277C33.4305 34.0915 32.8798 34.4595 32.2738 34.7105C31.6678 34.9615 31.0183 35.0907 30.3623 35.0907Z" fill="white"/>
</svg>
