<svg width="61" height="61" viewBox="0 0 61 61" fill="none" xmlns="http://www.w3.org/2000/svg">
<circle cx="30.9629" cy="30.6963" r="30" fill="black"/>
<path d="M38.5666 34.3109C38.2652 34.1611 36.306 33.2622 36.0046 33.1124C35.7032 32.9626 35.4017 32.9626 35.1003 33.2622C34.7989 33.5618 34.1961 34.4607 33.8947 34.7603C33.744 35.0599 33.4426 35.0599 33.1412 34.9101C32.0862 34.4607 31.0313 33.8614 30.127 33.1124C29.3735 32.3633 28.62 31.4644 28.0171 30.5656C27.8664 30.2659 28.0171 29.9663 28.1679 29.8165C28.3186 29.6667 28.4693 29.3671 28.7707 29.2172C28.9214 29.0674 29.0721 28.7678 29.0721 28.618C29.2228 28.4682 29.2228 28.1686 29.0721 28.0187C28.9214 27.8689 28.1679 26.0712 27.8664 25.3221C27.7157 24.2734 27.4143 24.2734 27.1129 24.2734H26.3594C26.058 24.2734 25.6058 24.5731 25.4551 24.7229C24.5509 25.6217 24.0988 26.6704 24.0988 27.8689C24.2495 29.2172 24.7016 30.5656 25.6058 31.7641C27.2636 34.1611 29.3735 36.1086 31.9355 37.3071C32.689 37.6068 33.2919 37.9064 34.0454 38.0562C34.7989 38.3558 35.5525 38.3558 36.4567 38.206C37.5116 38.0562 38.4159 37.3071 39.0187 36.4083C39.3201 35.809 39.3201 35.2098 39.1694 34.6105L38.5666 34.3109ZM42.3342 20.6779C36.4567 14.8352 26.9622 14.8352 21.0847 20.6779C16.2621 25.4719 15.3578 32.8128 18.6734 38.6554L16.5635 46.2959L24.5509 44.1985C26.8115 45.397 29.2228 45.9963 31.6341 45.9963C39.9229 45.9963 46.554 39.4045 46.554 31.1648C46.7047 27.2697 45.0469 23.5244 42.3342 20.6779ZM38.2652 41.6517C36.306 42.8502 34.0454 43.5993 31.6341 43.5993C29.3735 43.5993 27.2636 43 25.3044 41.9513L24.8523 41.6517L20.1804 42.8502L21.3861 38.3558L21.0847 37.9064C17.4677 31.9139 19.2762 24.4232 25.1537 20.6779C31.0313 16.9326 38.5666 18.8802 42.1835 24.5731C45.8005 30.4157 44.1427 38.0562 38.2652 41.6517Z" fill="white"/>
</svg>
