<svg width="35" height="28" viewBox="0 0 35 28" fill="none" xmlns="http://www.w3.org/2000/svg">
<path d="M31.1073 0.6875H4.00014C3.01979 0.6875 2.07958 1.0754 1.38637 1.76588C0.693155 2.45635 0.303711 3.39284 0.303711 4.36932V24.0057C0.303711 24.9822 0.693155 25.9186 1.38637 26.6091C2.07958 27.2996 3.01979 27.6875 4.00014 27.6875H31.1073C32.0876 27.6875 33.0278 27.2996 33.7211 26.6091C34.4143 25.9186 34.8037 24.9822 34.8037 24.0057V4.36932C34.8037 3.39284 34.4143 2.45635 33.7211 1.76588C33.0278 1.0754 32.0876 0.6875 31.1073 0.6875ZM25.4025 3.14205L17.5537 10.0884L9.70496 3.14205H25.4025ZM27.4109 25.233H7.69657V11.2298L16.7405 19.0966C16.9653 19.2933 17.2544 19.4019 17.5537 19.4019C17.853 19.4019 18.1421 19.2933 18.3669 19.0966L27.4109 11.2298V25.233ZM32.3394 24.0057C32.3394 24.3312 32.2096 24.6433 31.9785 24.8735C31.7475 25.1037 31.4341 25.233 31.1073 25.233H29.8751V8.5175C29.8748 8.28165 29.8063 8.05087 29.6778 7.8528C29.5492 7.65473 29.3661 7.49774 29.1503 7.40063C28.9345 7.30353 28.6952 7.2704 28.461 7.30524C28.2268 7.34007 28.0077 7.44138 27.8298 7.59705L17.5537 16.5439L7.27764 7.59705C7.09975 7.44138 6.88059 7.34007 6.6464 7.30524C6.41221 7.2704 6.1729 7.30353 5.95711 7.40063C5.74132 7.49774 5.5582 7.65473 5.42965 7.8528C5.3011 8.05087 5.23258 8.28165 5.23228 8.5175V25.233H4.00014C3.67335 25.233 3.35995 25.1037 3.12888 24.8735C2.89781 24.6433 2.768 24.3312 2.768 24.0057V4.36932C2.768 4.04383 2.89781 3.73166 3.12888 3.50151C3.35995 3.27135 3.67335 3.14205 4.00014 3.14205H5.99621L16.7405 12.6534C16.9653 12.8502 17.2544 12.9587 17.5537 12.9587C17.853 12.9587 18.1421 12.8502 18.3669 12.6534L29.1112 3.14205H31.1073C31.4341 3.14205 31.7475 3.27135 31.9785 3.50151C32.2096 3.73166 32.3394 4.04383 32.3394 4.36932V24.0057Z" fill="#40180C"/>
</svg>
