<svg width="61" height="61" viewBox="0 0 61 61" fill="none" xmlns="http://www.w3.org/2000/svg">
<circle cx="30.8037" cy="30.6875" r="30" fill="white"/>
<path d="M38.2131 20.2779C37.8571 20.2779 37.5091 20.3835 37.2131 20.5812C36.9171 20.779 36.6864 21.0602 36.5501 21.3891C36.4139 21.718 36.3783 22.0799 36.4477 22.4291C36.5172 22.7782 36.6886 23.0989 36.9403 23.3507C37.1921 23.6024 37.5128 23.7739 37.862 23.8433C38.2111 23.9128 38.573 23.8771 38.902 23.7409C39.2309 23.6046 39.512 23.3739 39.7098 23.0779C39.9076 22.7819 40.0131 22.4339 40.0131 22.0779C40.0131 21.6005 39.8235 21.1427 39.4859 20.8051C39.1484 20.4675 38.6905 20.2779 38.2131 20.2779ZM45.1131 23.9079C45.084 22.6633 44.8509 21.432 44.4231 20.2629C44.0417 19.2626 43.4481 18.3568 42.6831 17.6079C41.9404 16.839 41.0325 16.2492 40.0281 15.8829C38.8621 15.4421 37.6294 15.2037 36.3831 15.1779C34.7931 15.0879 34.2831 15.0879 30.2031 15.0879C26.1231 15.0879 25.6131 15.0879 24.0231 15.1779C22.7769 15.2037 21.5441 15.4421 20.3781 15.8829C19.3756 16.2529 18.4685 16.8422 17.7231 17.6079C16.9543 18.3507 16.3644 19.2586 15.9981 20.2629C15.5574 21.4289 15.3189 22.6616 15.2931 23.9079C15.2031 25.4979 15.2031 26.0079 15.2031 30.0879C15.2031 34.1679 15.2031 34.6779 15.2931 36.2679C15.3189 37.5142 15.5574 38.7469 15.9981 39.9129C16.3644 40.9172 16.9543 41.8251 17.7231 42.5679C18.4685 43.3335 19.3756 43.9229 20.3781 44.2929C21.5441 44.7336 22.7769 44.9721 24.0231 44.9979C25.6131 45.0879 26.1231 45.0879 30.2031 45.0879C34.2831 45.0879 34.7931 45.0879 36.3831 44.9979C37.6294 44.9721 38.8621 44.7336 40.0281 44.2929C41.0325 43.9266 41.9404 43.3368 42.6831 42.5679C43.4515 41.8218 44.0456 40.9152 44.4231 39.9129C44.8509 38.7438 45.084 37.5124 45.1131 36.2679C45.1131 34.6779 45.2031 34.1679 45.2031 30.0879C45.2031 26.0079 45.2031 25.4979 45.1131 23.9079ZM42.4131 36.0879C42.4022 37.04 42.2298 37.9834 41.9031 38.8779C41.6636 39.5307 41.2789 40.1205 40.7781 40.6029C40.2916 41.0986 39.703 41.4825 39.0531 41.7279C38.1587 42.0545 37.2153 42.227 36.2631 42.2379C34.7631 42.3129 34.2081 42.3279 30.2631 42.3279C26.3181 42.3279 25.7631 42.3279 24.2631 42.2379C23.2745 42.2564 22.29 42.1042 21.3531 41.7879C20.7318 41.53 20.1702 41.1471 19.7031 40.6629C19.2053 40.181 18.8254 39.5907 18.5931 38.9379C18.2269 38.0306 18.0238 37.0658 17.9931 36.0879C17.9931 34.5879 17.9031 34.0329 17.9031 30.0879C17.9031 26.1429 17.9031 25.5879 17.9931 24.0879C17.9998 23.1145 18.1776 22.1498 18.5181 21.2379C18.7822 20.6048 19.1875 20.0404 19.7031 19.5879C20.1588 19.0721 20.7221 18.6625 21.3531 18.3879C22.2675 18.058 23.2311 17.8855 24.2031 17.8779C25.7031 17.8779 26.2581 17.7879 30.2031 17.7879C34.1481 17.7879 34.7031 17.7879 36.2031 17.8779C37.1553 17.8888 38.0987 18.0613 38.9931 18.3879C39.6748 18.6409 40.2866 19.0522 40.7781 19.5879C41.2697 20.0487 41.6538 20.612 41.9031 21.2379C42.2365 22.1513 42.4091 23.1156 42.4131 24.0879C42.4881 25.5879 42.5031 26.1429 42.5031 30.0879C42.5031 34.0329 42.4881 34.5879 42.4131 36.0879ZM30.2031 22.3929C28.6818 22.3959 27.1956 22.8497 25.9321 23.697C24.6686 24.5444 23.6847 25.7472 23.1046 27.1535C22.5245 28.5599 22.3742 30.1066 22.6728 31.5983C22.9714 33.09 23.7055 34.4597 24.7822 35.5344C25.859 36.609 27.2301 37.3404 28.7224 37.6361C30.2147 37.9318 31.7611 37.7786 33.1663 37.1957C34.5715 36.6128 35.7724 35.6266 36.6173 34.3614C37.4622 33.0963 37.9131 31.6092 37.9131 30.0879C37.9151 29.0755 37.7169 28.0728 37.33 27.1373C36.943 26.2018 36.375 25.3521 35.6584 24.637C34.9419 23.9218 34.091 23.3554 33.1548 22.9703C32.2186 22.5852 31.2155 22.3889 30.2031 22.3929ZM30.2031 35.0829C29.2152 35.0829 28.2495 34.7899 27.4281 34.2411C26.6066 33.6922 25.9664 32.9121 25.5883 31.9994C25.2103 31.0867 25.1114 30.0823 25.3041 29.1134C25.4968 28.1445 25.9726 27.2545 26.6711 26.5559C27.3697 25.8573 28.2597 25.3816 29.2286 25.1889C30.1976 24.9961 31.2019 25.0951 32.1146 25.4731C33.0273 25.8512 33.8075 26.4914 34.3563 27.3128C34.9052 28.1342 35.1981 29.1 35.1981 30.0879C35.1981 30.7438 35.0689 31.3934 34.8179 31.9994C34.5669 32.6054 34.199 33.1561 33.7351 33.6199C33.2713 34.0837 32.7206 34.4516 32.1146 34.7027C31.5086 34.9537 30.8591 35.0829 30.2031 35.0829Z" fill="#40180C"/>
</svg>
