<svg width="61" height="61" viewBox="0 0 61 61" fill="none" xmlns="http://www.w3.org/2000/svg">
<circle cx="30.9629" cy="30.6963" r="30" fill="black"/>
<path d="M45.2665 18.6963H18.1593C17.179 18.6963 16.2388 19.0842 15.5455 19.7747C14.8523 20.4651 14.4629 21.4016 14.4629 22.3781V42.0145C14.4629 42.9909 14.8523 43.9274 15.5455 44.6179C16.2388 45.3084 17.179 45.6963 18.1593 45.6963H45.2665C46.2468 45.6963 47.187 45.3084 47.8802 44.6179C48.5734 43.9274 48.9629 42.9909 48.9629 42.0145V22.3781C48.9629 21.4016 48.5734 20.4651 47.8802 19.7747C47.187 19.0842 46.2468 18.6963 45.2665 18.6963ZM39.5616 21.1508L31.7129 28.0972L23.8641 21.1508H39.5616ZM41.57 43.2417H21.8557V29.2386L30.8997 37.1054C31.1245 37.3021 31.4136 37.4106 31.7129 37.4106C32.0122 37.4106 32.3013 37.3021 32.5261 37.1054L41.57 29.2386V43.2417ZM46.4986 42.0145C46.4986 42.34 46.3688 42.6521 46.1377 42.8823C45.9066 43.1124 45.5932 43.2417 45.2665 43.2417H44.0343V26.5263C44.034 26.2904 43.9655 26.0597 43.837 25.8616C43.7084 25.6635 43.5253 25.5065 43.3095 25.4094C43.0937 25.3123 42.8544 25.2792 42.6202 25.314C42.386 25.3489 42.1669 25.4502 41.989 25.6058L31.7129 34.5527L21.4368 25.6058C21.2589 25.4502 21.0398 25.3489 20.8056 25.314C20.5714 25.2792 20.3321 25.3123 20.1163 25.4094C19.9005 25.5065 19.7174 25.6635 19.5888 25.8616C19.4603 26.0597 19.3918 26.2904 19.3915 26.5263V43.2417H18.1593C17.8325 43.2417 17.5191 43.1124 17.2881 42.8823C17.057 42.6521 16.9272 42.34 16.9272 42.0145V22.3781C16.9272 22.0526 17.057 21.7405 17.2881 21.5103C17.5191 21.2801 17.8325 21.1508 18.1593 21.1508H20.1554L30.8997 30.6622C31.1245 30.859 31.4136 30.9675 31.7129 30.9675C32.0122 30.9675 32.3013 30.859 32.5261 30.6622L43.2704 21.1508H45.2665C45.5932 21.1508 45.9066 21.2801 46.1377 21.5103C46.3688 21.7405 46.4986 22.0526 46.4986 22.3781V42.0145Z" fill="white"/>
</svg>
