<svg width="43" height="45" viewBox="0 0 43 45" fill="none" xmlns="http://www.w3.org/2000/svg">
<g clip-path="url(#clip0_452_910)">
<path d="M28.8104 33.5251H4.71436V8.90527H28.8104V33.5251ZM5.76201 32.4775H27.7627V9.95293H5.76201V32.4775Z" fill="white"/>
<path d="M22.5247 12.5718H21.477V5.76209C21.477 3.16287 19.3618 1.04765 16.7626 1.04765C14.1634 1.04765 12.0481 3.16287 12.0481 5.76209V12.5718H11.0005V5.76209C11.0005 2.58508 13.5856 0 16.7626 0C19.9396 0 22.5247 2.58508 22.5247 5.76209V12.5718Z" fill="white"/>
</g>
<circle cx="32.8544" cy="34.1952" r="10.0575" fill="white"/>
<path d="M32.3765 37.5411V31.9161H33.3311V37.5411H32.3765ZM30.0413 35.2059V34.2513H35.6663V35.2059H30.0413Z" fill="#1E1E1E"/>
<defs>
<clipPath id="clip0_452_910">
<rect width="33.5249" height="33.5249" fill="white"/>
</clipPath>
</defs>
</svg>
