<svg width="60" height="60" viewBox="0 0 60 60" fill="none" xmlns="http://www.w3.org/2000/svg">
<circle cx="30" cy="30" r="30" fill="white"/>
<path d="M37.6037 33.6146C37.3023 33.4648 35.3431 32.5659 35.0417 32.4161C34.7403 32.2663 34.4389 32.2663 34.1374 32.5659C33.836 32.8655 33.2332 33.7644 32.9318 34.064C32.7811 34.3637 32.4797 34.3637 32.1783 34.2138C31.1233 33.7644 30.0684 33.1652 29.1641 32.4161C28.4106 31.667 27.6571 30.7681 27.0543 29.8693C26.9035 29.5696 27.0543 29.27 27.205 29.1202C27.3557 28.9704 27.5064 28.6708 27.8078 28.521C27.9585 28.3711 28.1092 28.0715 28.1092 27.9217C28.2599 27.7719 28.2599 27.4723 28.1092 27.3225C27.9585 27.1726 27.205 25.3749 26.9035 24.6258C26.7528 23.5771 26.4514 23.5771 26.15 23.5771H25.3965C25.0951 23.5771 24.643 23.8768 24.4922 24.0266C23.588 24.9255 23.1359 25.9741 23.1359 27.1726C23.2866 28.521 23.7387 29.8693 24.643 31.0678C26.3007 33.4648 28.4106 35.4123 30.9726 36.6108C31.7261 36.9105 32.329 37.2101 33.0825 37.3599C33.836 37.6595 34.5896 37.6595 35.4938 37.5097C36.5487 37.3599 37.453 36.6108 38.0558 35.712C38.3572 35.1127 38.3572 34.5135 38.2065 33.9142L37.6037 33.6146ZM41.3713 19.9816C35.4938 14.1389 25.9993 14.1389 20.1218 19.9816C15.2992 24.7756 14.3949 32.1165 17.7105 37.9592L15.6006 45.5996L23.588 43.5022C25.8486 44.7007 28.2599 45.3 30.6712 45.3C38.96 45.3 45.5911 38.7082 45.5911 30.4685C45.7418 26.5734 44.0841 22.8281 41.3713 19.9816ZM37.3023 40.9554C35.3431 42.1539 33.0825 42.903 30.6712 42.903C28.4106 42.903 26.3007 42.3037 24.3415 41.255L23.8894 40.9554L19.2175 42.1539L20.4232 37.6595L20.1218 37.2101C16.5048 31.2176 18.3133 23.727 24.1908 19.9816C30.0684 16.2363 37.6037 18.1839 41.2206 23.8768C44.8376 29.7195 43.1798 37.3599 37.3023 40.9554Z" fill="#40180C"/>
</svg>
